<mxfile host="app.diagrams.net" modified="2023-01-29T05:21:35.921Z" agent="5.0 (Windows NT 10.0; Win64; x64) AppleWebKit/537.36 (KHTML, like Gecko) Chrome/109.0.0.0 Safari/537.36" etag="ZANX-U920bDIP22AjghF" version="20.8.11" type="github">
  <diagram name="Page-1" id="73H9CBfih1wd_lHmCo1n">
    <mxGraphModel dx="1050" dy="619" grid="1" gridSize="10" guides="1" tooltips="1" connect="1" arrows="1" fold="1" page="1" pageScale="1" pageWidth="850" pageHeight="1100" math="0" shadow="0">
      <root>
        <mxCell id="0" />
        <mxCell id="1" parent="0" />
        <mxCell id="46tiHvYXBvrRHCsuIv1C-75" value="" style="group;fillColor=none;" vertex="1" connectable="0" parent="1">
          <mxGeometry x="120" y="120" width="140" height="140" as="geometry" />
        </mxCell>
        <mxCell id="46tiHvYXBvrRHCsuIv1C-76" value="" style="whiteSpace=wrap;html=1;aspect=fixed;fillColor=#FFCCCC;" vertex="1" parent="46tiHvYXBvrRHCsuIv1C-75">
          <mxGeometry y="80" width="40" height="40" as="geometry" />
        </mxCell>
        <mxCell id="46tiHvYXBvrRHCsuIv1C-77" value="" style="whiteSpace=wrap;html=1;aspect=fixed;fillColor=#FFCCCC;" vertex="1" parent="46tiHvYXBvrRHCsuIv1C-75">
          <mxGeometry x="40" y="80" width="40" height="40" as="geometry" />
        </mxCell>
        <mxCell id="46tiHvYXBvrRHCsuIv1C-78" value="" style="whiteSpace=wrap;html=1;aspect=fixed;fillColor=#FFCCCC;" vertex="1" parent="46tiHvYXBvrRHCsuIv1C-75">
          <mxGeometry x="80" y="80" width="40" height="40" as="geometry" />
        </mxCell>
        <mxCell id="46tiHvYXBvrRHCsuIv1C-79" value="" style="whiteSpace=wrap;html=1;aspect=fixed;fillColor=#FFCCCC;" vertex="1" parent="46tiHvYXBvrRHCsuIv1C-75">
          <mxGeometry y="40" width="40" height="40" as="geometry" />
        </mxCell>
        <mxCell id="46tiHvYXBvrRHCsuIv1C-80" value="" style="whiteSpace=wrap;html=1;aspect=fixed;fillColor=#FFCCCC;" vertex="1" parent="46tiHvYXBvrRHCsuIv1C-75">
          <mxGeometry x="40" y="40" width="40" height="40" as="geometry" />
        </mxCell>
        <mxCell id="46tiHvYXBvrRHCsuIv1C-81" value="" style="whiteSpace=wrap;html=1;aspect=fixed;fillColor=#FFCCCC;" vertex="1" parent="46tiHvYXBvrRHCsuIv1C-75">
          <mxGeometry x="80" y="40" width="40" height="40" as="geometry" />
        </mxCell>
        <mxCell id="46tiHvYXBvrRHCsuIv1C-82" value="" style="whiteSpace=wrap;html=1;aspect=fixed;fillColor=#FFCCCC;" vertex="1" parent="46tiHvYXBvrRHCsuIv1C-75">
          <mxGeometry width="40" height="40" as="geometry" />
        </mxCell>
        <mxCell id="46tiHvYXBvrRHCsuIv1C-83" value="" style="whiteSpace=wrap;html=1;aspect=fixed;fillColor=#FFCCCC;" vertex="1" parent="46tiHvYXBvrRHCsuIv1C-75">
          <mxGeometry x="40" width="40" height="40" as="geometry" />
        </mxCell>
        <mxCell id="46tiHvYXBvrRHCsuIv1C-84" value="" style="whiteSpace=wrap;html=1;aspect=fixed;fillColor=#FFCCCC;" vertex="1" parent="46tiHvYXBvrRHCsuIv1C-75">
          <mxGeometry x="80" width="40" height="40" as="geometry" />
        </mxCell>
        <mxCell id="46tiHvYXBvrRHCsuIv1C-85" value="" style="group;fillColor=none;" vertex="1" connectable="0" parent="46tiHvYXBvrRHCsuIv1C-75">
          <mxGeometry x="10" y="10" width="130" height="130" as="geometry" />
        </mxCell>
        <mxCell id="46tiHvYXBvrRHCsuIv1C-86" value="" style="whiteSpace=wrap;html=1;aspect=fixed;fillColor=#CCFFCC;" vertex="1" parent="46tiHvYXBvrRHCsuIv1C-85">
          <mxGeometry y="80" width="40" height="40" as="geometry" />
        </mxCell>
        <mxCell id="46tiHvYXBvrRHCsuIv1C-87" value="" style="whiteSpace=wrap;html=1;aspect=fixed;fillColor=#CCFFCC;" vertex="1" parent="46tiHvYXBvrRHCsuIv1C-85">
          <mxGeometry x="40" y="80" width="40" height="40" as="geometry" />
        </mxCell>
        <mxCell id="46tiHvYXBvrRHCsuIv1C-88" value="" style="whiteSpace=wrap;html=1;aspect=fixed;fillColor=#CCFFCC;" vertex="1" parent="46tiHvYXBvrRHCsuIv1C-85">
          <mxGeometry x="80" y="80" width="40" height="40" as="geometry" />
        </mxCell>
        <mxCell id="46tiHvYXBvrRHCsuIv1C-89" value="" style="whiteSpace=wrap;html=1;aspect=fixed;fillColor=#CCFFCC;" vertex="1" parent="46tiHvYXBvrRHCsuIv1C-85">
          <mxGeometry y="40" width="40" height="40" as="geometry" />
        </mxCell>
        <mxCell id="46tiHvYXBvrRHCsuIv1C-90" value="" style="whiteSpace=wrap;html=1;aspect=fixed;fillColor=#CCFFCC;" vertex="1" parent="46tiHvYXBvrRHCsuIv1C-85">
          <mxGeometry x="40" y="40" width="40" height="40" as="geometry" />
        </mxCell>
        <mxCell id="46tiHvYXBvrRHCsuIv1C-91" value="" style="whiteSpace=wrap;html=1;aspect=fixed;fillColor=#CCFFCC;" vertex="1" parent="46tiHvYXBvrRHCsuIv1C-85">
          <mxGeometry x="80" y="40" width="40" height="40" as="geometry" />
        </mxCell>
        <mxCell id="46tiHvYXBvrRHCsuIv1C-92" value="" style="whiteSpace=wrap;html=1;aspect=fixed;fillColor=#CCFFCC;" vertex="1" parent="46tiHvYXBvrRHCsuIv1C-85">
          <mxGeometry width="40" height="40" as="geometry" />
        </mxCell>
        <mxCell id="46tiHvYXBvrRHCsuIv1C-93" value="" style="whiteSpace=wrap;html=1;aspect=fixed;fillColor=#CCFFCC;" vertex="1" parent="46tiHvYXBvrRHCsuIv1C-85">
          <mxGeometry x="40" width="40" height="40" as="geometry" />
        </mxCell>
        <mxCell id="46tiHvYXBvrRHCsuIv1C-94" value="" style="whiteSpace=wrap;html=1;aspect=fixed;fillColor=#CCFFCC;" vertex="1" parent="46tiHvYXBvrRHCsuIv1C-85">
          <mxGeometry x="80" width="40" height="40" as="geometry" />
        </mxCell>
        <mxCell id="46tiHvYXBvrRHCsuIv1C-95" value="" style="group;fillColor=none;" vertex="1" connectable="0" parent="46tiHvYXBvrRHCsuIv1C-85">
          <mxGeometry x="10" y="10" width="120" height="120" as="geometry" />
        </mxCell>
        <mxCell id="46tiHvYXBvrRHCsuIv1C-96" value="" style="whiteSpace=wrap;html=1;aspect=fixed;fillColor=#CCFFFF;" vertex="1" parent="46tiHvYXBvrRHCsuIv1C-95">
          <mxGeometry y="80" width="40" height="40" as="geometry" />
        </mxCell>
        <mxCell id="46tiHvYXBvrRHCsuIv1C-97" value="" style="whiteSpace=wrap;html=1;aspect=fixed;fillColor=#CCFFFF;" vertex="1" parent="46tiHvYXBvrRHCsuIv1C-95">
          <mxGeometry x="40" y="80" width="40" height="40" as="geometry" />
        </mxCell>
        <mxCell id="46tiHvYXBvrRHCsuIv1C-98" value="" style="whiteSpace=wrap;html=1;aspect=fixed;fillColor=#CCFFFF;" vertex="1" parent="46tiHvYXBvrRHCsuIv1C-95">
          <mxGeometry x="80" y="80" width="40" height="40" as="geometry" />
        </mxCell>
        <mxCell id="46tiHvYXBvrRHCsuIv1C-99" value="" style="whiteSpace=wrap;html=1;aspect=fixed;fillColor=#CCFFFF;" vertex="1" parent="46tiHvYXBvrRHCsuIv1C-95">
          <mxGeometry y="40" width="40" height="40" as="geometry" />
        </mxCell>
        <mxCell id="46tiHvYXBvrRHCsuIv1C-100" value="" style="whiteSpace=wrap;html=1;aspect=fixed;fillColor=#CCFFFF;" vertex="1" parent="46tiHvYXBvrRHCsuIv1C-95">
          <mxGeometry x="40" y="40" width="40" height="40" as="geometry" />
        </mxCell>
        <mxCell id="46tiHvYXBvrRHCsuIv1C-101" value="" style="whiteSpace=wrap;html=1;aspect=fixed;fillColor=#CCFFFF;" vertex="1" parent="46tiHvYXBvrRHCsuIv1C-95">
          <mxGeometry x="80" y="40" width="40" height="40" as="geometry" />
        </mxCell>
        <mxCell id="46tiHvYXBvrRHCsuIv1C-102" value="" style="whiteSpace=wrap;html=1;aspect=fixed;fillColor=#CCFFFF;" vertex="1" parent="46tiHvYXBvrRHCsuIv1C-95">
          <mxGeometry width="40" height="40" as="geometry" />
        </mxCell>
        <mxCell id="46tiHvYXBvrRHCsuIv1C-103" value="" style="whiteSpace=wrap;html=1;aspect=fixed;fillColor=#CCFFFF;" vertex="1" parent="46tiHvYXBvrRHCsuIv1C-95">
          <mxGeometry x="40" width="40" height="40" as="geometry" />
        </mxCell>
        <mxCell id="46tiHvYXBvrRHCsuIv1C-104" value="" style="whiteSpace=wrap;html=1;aspect=fixed;fillColor=#CCFFFF;" vertex="1" parent="46tiHvYXBvrRHCsuIv1C-95">
          <mxGeometry x="80" width="40" height="40" as="geometry" />
        </mxCell>
        <mxCell id="46tiHvYXBvrRHCsuIv1C-105" value="" style="group;fillColor=none;" vertex="1" connectable="0" parent="1">
          <mxGeometry x="360" y="120" width="140" height="140" as="geometry" />
        </mxCell>
        <mxCell id="46tiHvYXBvrRHCsuIv1C-106" value="" style="whiteSpace=wrap;html=1;aspect=fixed;fillColor=#FFCCCC;" vertex="1" parent="46tiHvYXBvrRHCsuIv1C-105">
          <mxGeometry y="80" width="40" height="40" as="geometry" />
        </mxCell>
        <mxCell id="46tiHvYXBvrRHCsuIv1C-107" value="" style="whiteSpace=wrap;html=1;aspect=fixed;fillColor=#FFCCCC;" vertex="1" parent="46tiHvYXBvrRHCsuIv1C-105">
          <mxGeometry x="40" y="80" width="40" height="40" as="geometry" />
        </mxCell>
        <mxCell id="46tiHvYXBvrRHCsuIv1C-108" value="" style="whiteSpace=wrap;html=1;aspect=fixed;fillColor=#FFCCCC;" vertex="1" parent="46tiHvYXBvrRHCsuIv1C-105">
          <mxGeometry x="80" y="80" width="40" height="40" as="geometry" />
        </mxCell>
        <mxCell id="46tiHvYXBvrRHCsuIv1C-109" value="" style="whiteSpace=wrap;html=1;aspect=fixed;fillColor=#FFCCCC;" vertex="1" parent="46tiHvYXBvrRHCsuIv1C-105">
          <mxGeometry y="40" width="40" height="40" as="geometry" />
        </mxCell>
        <mxCell id="46tiHvYXBvrRHCsuIv1C-110" value="" style="whiteSpace=wrap;html=1;aspect=fixed;fillColor=#FFCCCC;" vertex="1" parent="46tiHvYXBvrRHCsuIv1C-105">
          <mxGeometry x="40" y="40" width="40" height="40" as="geometry" />
        </mxCell>
        <mxCell id="46tiHvYXBvrRHCsuIv1C-111" value="" style="whiteSpace=wrap;html=1;aspect=fixed;fillColor=#FFCCCC;" vertex="1" parent="46tiHvYXBvrRHCsuIv1C-105">
          <mxGeometry x="80" y="40" width="40" height="40" as="geometry" />
        </mxCell>
        <mxCell id="46tiHvYXBvrRHCsuIv1C-112" value="" style="whiteSpace=wrap;html=1;aspect=fixed;fillColor=#FFCCCC;" vertex="1" parent="46tiHvYXBvrRHCsuIv1C-105">
          <mxGeometry width="40" height="40" as="geometry" />
        </mxCell>
        <mxCell id="46tiHvYXBvrRHCsuIv1C-113" value="" style="whiteSpace=wrap;html=1;aspect=fixed;fillColor=#FFCCCC;" vertex="1" parent="46tiHvYXBvrRHCsuIv1C-105">
          <mxGeometry x="40" width="40" height="40" as="geometry" />
        </mxCell>
        <mxCell id="46tiHvYXBvrRHCsuIv1C-114" value="" style="whiteSpace=wrap;html=1;aspect=fixed;fillColor=#FFCCCC;" vertex="1" parent="46tiHvYXBvrRHCsuIv1C-105">
          <mxGeometry x="80" width="40" height="40" as="geometry" />
        </mxCell>
        <mxCell id="46tiHvYXBvrRHCsuIv1C-115" value="" style="group;fillColor=none;" vertex="1" connectable="0" parent="46tiHvYXBvrRHCsuIv1C-105">
          <mxGeometry x="10" y="10" width="130" height="130" as="geometry" />
        </mxCell>
        <mxCell id="46tiHvYXBvrRHCsuIv1C-116" value="" style="whiteSpace=wrap;html=1;aspect=fixed;fillColor=#CCFFCC;" vertex="1" parent="46tiHvYXBvrRHCsuIv1C-115">
          <mxGeometry y="80" width="40" height="40" as="geometry" />
        </mxCell>
        <mxCell id="46tiHvYXBvrRHCsuIv1C-117" value="" style="whiteSpace=wrap;html=1;aspect=fixed;fillColor=#CCFFCC;" vertex="1" parent="46tiHvYXBvrRHCsuIv1C-115">
          <mxGeometry x="40" y="80" width="40" height="40" as="geometry" />
        </mxCell>
        <mxCell id="46tiHvYXBvrRHCsuIv1C-118" value="" style="whiteSpace=wrap;html=1;aspect=fixed;fillColor=#CCFFCC;" vertex="1" parent="46tiHvYXBvrRHCsuIv1C-115">
          <mxGeometry x="80" y="80" width="40" height="40" as="geometry" />
        </mxCell>
        <mxCell id="46tiHvYXBvrRHCsuIv1C-119" value="" style="whiteSpace=wrap;html=1;aspect=fixed;fillColor=#CCFFCC;" vertex="1" parent="46tiHvYXBvrRHCsuIv1C-115">
          <mxGeometry y="40" width="40" height="40" as="geometry" />
        </mxCell>
        <mxCell id="46tiHvYXBvrRHCsuIv1C-120" value="" style="whiteSpace=wrap;html=1;aspect=fixed;fillColor=#CCFFCC;" vertex="1" parent="46tiHvYXBvrRHCsuIv1C-115">
          <mxGeometry x="40" y="40" width="40" height="40" as="geometry" />
        </mxCell>
        <mxCell id="46tiHvYXBvrRHCsuIv1C-121" value="" style="whiteSpace=wrap;html=1;aspect=fixed;fillColor=#CCFFCC;" vertex="1" parent="46tiHvYXBvrRHCsuIv1C-115">
          <mxGeometry x="80" y="40" width="40" height="40" as="geometry" />
        </mxCell>
        <mxCell id="46tiHvYXBvrRHCsuIv1C-122" value="" style="whiteSpace=wrap;html=1;aspect=fixed;fillColor=#CCFFCC;" vertex="1" parent="46tiHvYXBvrRHCsuIv1C-115">
          <mxGeometry width="40" height="40" as="geometry" />
        </mxCell>
        <mxCell id="46tiHvYXBvrRHCsuIv1C-123" value="" style="whiteSpace=wrap;html=1;aspect=fixed;fillColor=#CCFFCC;" vertex="1" parent="46tiHvYXBvrRHCsuIv1C-115">
          <mxGeometry x="40" width="40" height="40" as="geometry" />
        </mxCell>
        <mxCell id="46tiHvYXBvrRHCsuIv1C-124" value="" style="whiteSpace=wrap;html=1;aspect=fixed;fillColor=#CCFFCC;" vertex="1" parent="46tiHvYXBvrRHCsuIv1C-115">
          <mxGeometry x="80" width="40" height="40" as="geometry" />
        </mxCell>
        <mxCell id="46tiHvYXBvrRHCsuIv1C-125" value="" style="group;fillColor=none;" vertex="1" connectable="0" parent="46tiHvYXBvrRHCsuIv1C-115">
          <mxGeometry x="10" y="10" width="120" height="120" as="geometry" />
        </mxCell>
        <mxCell id="46tiHvYXBvrRHCsuIv1C-126" value="" style="whiteSpace=wrap;html=1;aspect=fixed;fillColor=#CCFFFF;" vertex="1" parent="46tiHvYXBvrRHCsuIv1C-125">
          <mxGeometry y="80" width="40" height="40" as="geometry" />
        </mxCell>
        <mxCell id="46tiHvYXBvrRHCsuIv1C-127" value="" style="whiteSpace=wrap;html=1;aspect=fixed;fillColor=#CCFFFF;" vertex="1" parent="46tiHvYXBvrRHCsuIv1C-125">
          <mxGeometry x="40" y="80" width="40" height="40" as="geometry" />
        </mxCell>
        <mxCell id="46tiHvYXBvrRHCsuIv1C-128" value="" style="whiteSpace=wrap;html=1;aspect=fixed;fillColor=#CCFFFF;" vertex="1" parent="46tiHvYXBvrRHCsuIv1C-125">
          <mxGeometry x="80" y="80" width="40" height="40" as="geometry" />
        </mxCell>
        <mxCell id="46tiHvYXBvrRHCsuIv1C-129" value="" style="whiteSpace=wrap;html=1;aspect=fixed;fillColor=#CCFFFF;" vertex="1" parent="46tiHvYXBvrRHCsuIv1C-125">
          <mxGeometry y="40" width="40" height="40" as="geometry" />
        </mxCell>
        <mxCell id="46tiHvYXBvrRHCsuIv1C-130" value="" style="whiteSpace=wrap;html=1;aspect=fixed;fillColor=#CCFFFF;" vertex="1" parent="46tiHvYXBvrRHCsuIv1C-125">
          <mxGeometry x="40" y="40" width="40" height="40" as="geometry" />
        </mxCell>
        <mxCell id="46tiHvYXBvrRHCsuIv1C-131" value="" style="whiteSpace=wrap;html=1;aspect=fixed;fillColor=#CCFFFF;" vertex="1" parent="46tiHvYXBvrRHCsuIv1C-125">
          <mxGeometry x="80" y="40" width="40" height="40" as="geometry" />
        </mxCell>
        <mxCell id="46tiHvYXBvrRHCsuIv1C-132" value="" style="whiteSpace=wrap;html=1;aspect=fixed;fillColor=#CCFFFF;" vertex="1" parent="46tiHvYXBvrRHCsuIv1C-125">
          <mxGeometry width="40" height="40" as="geometry" />
        </mxCell>
        <mxCell id="46tiHvYXBvrRHCsuIv1C-133" value="" style="whiteSpace=wrap;html=1;aspect=fixed;fillColor=#CCFFFF;" vertex="1" parent="46tiHvYXBvrRHCsuIv1C-125">
          <mxGeometry x="40" width="40" height="40" as="geometry" />
        </mxCell>
        <mxCell id="46tiHvYXBvrRHCsuIv1C-134" value="" style="whiteSpace=wrap;html=1;aspect=fixed;fillColor=#CCFFFF;" vertex="1" parent="46tiHvYXBvrRHCsuIv1C-125">
          <mxGeometry x="80" width="40" height="40" as="geometry" />
        </mxCell>
        <mxCell id="46tiHvYXBvrRHCsuIv1C-136" value="" style="group;fillColor=none;" vertex="1" connectable="0" parent="1">
          <mxGeometry x="600" y="120" width="140" height="140" as="geometry" />
        </mxCell>
        <mxCell id="46tiHvYXBvrRHCsuIv1C-137" value="" style="whiteSpace=wrap;html=1;aspect=fixed;fillColor=#FFCCCC;" vertex="1" parent="46tiHvYXBvrRHCsuIv1C-136">
          <mxGeometry y="80" width="40" height="40" as="geometry" />
        </mxCell>
        <mxCell id="46tiHvYXBvrRHCsuIv1C-138" value="" style="whiteSpace=wrap;html=1;aspect=fixed;fillColor=#FFCCCC;" vertex="1" parent="46tiHvYXBvrRHCsuIv1C-136">
          <mxGeometry x="40" y="80" width="40" height="40" as="geometry" />
        </mxCell>
        <mxCell id="46tiHvYXBvrRHCsuIv1C-139" value="" style="whiteSpace=wrap;html=1;aspect=fixed;fillColor=#FFCCCC;" vertex="1" parent="46tiHvYXBvrRHCsuIv1C-136">
          <mxGeometry x="80" y="80" width="40" height="40" as="geometry" />
        </mxCell>
        <mxCell id="46tiHvYXBvrRHCsuIv1C-140" value="" style="whiteSpace=wrap;html=1;aspect=fixed;fillColor=#FFCCCC;" vertex="1" parent="46tiHvYXBvrRHCsuIv1C-136">
          <mxGeometry y="40" width="40" height="40" as="geometry" />
        </mxCell>
        <mxCell id="46tiHvYXBvrRHCsuIv1C-141" value="" style="whiteSpace=wrap;html=1;aspect=fixed;fillColor=#FFCCCC;" vertex="1" parent="46tiHvYXBvrRHCsuIv1C-136">
          <mxGeometry x="40" y="40" width="40" height="40" as="geometry" />
        </mxCell>
        <mxCell id="46tiHvYXBvrRHCsuIv1C-142" value="" style="whiteSpace=wrap;html=1;aspect=fixed;fillColor=#FFCCCC;" vertex="1" parent="46tiHvYXBvrRHCsuIv1C-136">
          <mxGeometry x="80" y="40" width="40" height="40" as="geometry" />
        </mxCell>
        <mxCell id="46tiHvYXBvrRHCsuIv1C-143" value="" style="whiteSpace=wrap;html=1;aspect=fixed;fillColor=#FFCCCC;" vertex="1" parent="46tiHvYXBvrRHCsuIv1C-136">
          <mxGeometry width="40" height="40" as="geometry" />
        </mxCell>
        <mxCell id="46tiHvYXBvrRHCsuIv1C-144" value="" style="whiteSpace=wrap;html=1;aspect=fixed;fillColor=#FFCCCC;" vertex="1" parent="46tiHvYXBvrRHCsuIv1C-136">
          <mxGeometry x="40" width="40" height="40" as="geometry" />
        </mxCell>
        <mxCell id="46tiHvYXBvrRHCsuIv1C-145" value="" style="whiteSpace=wrap;html=1;aspect=fixed;fillColor=#FFCCCC;" vertex="1" parent="46tiHvYXBvrRHCsuIv1C-136">
          <mxGeometry x="80" width="40" height="40" as="geometry" />
        </mxCell>
        <mxCell id="46tiHvYXBvrRHCsuIv1C-146" value="" style="group;fillColor=none;" vertex="1" connectable="0" parent="46tiHvYXBvrRHCsuIv1C-136">
          <mxGeometry x="10" y="10" width="130" height="130" as="geometry" />
        </mxCell>
        <mxCell id="46tiHvYXBvrRHCsuIv1C-147" value="" style="whiteSpace=wrap;html=1;aspect=fixed;fillColor=#CCFFCC;" vertex="1" parent="46tiHvYXBvrRHCsuIv1C-146">
          <mxGeometry y="80" width="40" height="40" as="geometry" />
        </mxCell>
        <mxCell id="46tiHvYXBvrRHCsuIv1C-148" value="" style="whiteSpace=wrap;html=1;aspect=fixed;fillColor=#CCFFCC;" vertex="1" parent="46tiHvYXBvrRHCsuIv1C-146">
          <mxGeometry x="40" y="80" width="40" height="40" as="geometry" />
        </mxCell>
        <mxCell id="46tiHvYXBvrRHCsuIv1C-149" value="" style="whiteSpace=wrap;html=1;aspect=fixed;fillColor=#CCFFCC;" vertex="1" parent="46tiHvYXBvrRHCsuIv1C-146">
          <mxGeometry x="80" y="80" width="40" height="40" as="geometry" />
        </mxCell>
        <mxCell id="46tiHvYXBvrRHCsuIv1C-150" value="" style="whiteSpace=wrap;html=1;aspect=fixed;fillColor=#CCFFCC;" vertex="1" parent="46tiHvYXBvrRHCsuIv1C-146">
          <mxGeometry y="40" width="40" height="40" as="geometry" />
        </mxCell>
        <mxCell id="46tiHvYXBvrRHCsuIv1C-151" value="" style="whiteSpace=wrap;html=1;aspect=fixed;fillColor=#CCFFCC;" vertex="1" parent="46tiHvYXBvrRHCsuIv1C-146">
          <mxGeometry x="40" y="40" width="40" height="40" as="geometry" />
        </mxCell>
        <mxCell id="46tiHvYXBvrRHCsuIv1C-152" value="" style="whiteSpace=wrap;html=1;aspect=fixed;fillColor=#CCFFCC;" vertex="1" parent="46tiHvYXBvrRHCsuIv1C-146">
          <mxGeometry x="80" y="40" width="40" height="40" as="geometry" />
        </mxCell>
        <mxCell id="46tiHvYXBvrRHCsuIv1C-153" value="" style="whiteSpace=wrap;html=1;aspect=fixed;fillColor=#CCFFCC;" vertex="1" parent="46tiHvYXBvrRHCsuIv1C-146">
          <mxGeometry width="40" height="40" as="geometry" />
        </mxCell>
        <mxCell id="46tiHvYXBvrRHCsuIv1C-154" value="" style="whiteSpace=wrap;html=1;aspect=fixed;fillColor=#CCFFCC;" vertex="1" parent="46tiHvYXBvrRHCsuIv1C-146">
          <mxGeometry x="40" width="40" height="40" as="geometry" />
        </mxCell>
        <mxCell id="46tiHvYXBvrRHCsuIv1C-155" value="" style="whiteSpace=wrap;html=1;aspect=fixed;fillColor=#CCFFCC;" vertex="1" parent="46tiHvYXBvrRHCsuIv1C-146">
          <mxGeometry x="80" width="40" height="40" as="geometry" />
        </mxCell>
        <mxCell id="46tiHvYXBvrRHCsuIv1C-156" value="" style="group;fillColor=none;" vertex="1" connectable="0" parent="46tiHvYXBvrRHCsuIv1C-146">
          <mxGeometry x="10" y="10" width="120" height="120" as="geometry" />
        </mxCell>
        <mxCell id="46tiHvYXBvrRHCsuIv1C-157" value="" style="whiteSpace=wrap;html=1;aspect=fixed;fillColor=#CCFFFF;" vertex="1" parent="46tiHvYXBvrRHCsuIv1C-156">
          <mxGeometry y="80" width="40" height="40" as="geometry" />
        </mxCell>
        <mxCell id="46tiHvYXBvrRHCsuIv1C-158" value="" style="whiteSpace=wrap;html=1;aspect=fixed;fillColor=#CCFFFF;" vertex="1" parent="46tiHvYXBvrRHCsuIv1C-156">
          <mxGeometry x="40" y="80" width="40" height="40" as="geometry" />
        </mxCell>
        <mxCell id="46tiHvYXBvrRHCsuIv1C-159" value="" style="whiteSpace=wrap;html=1;aspect=fixed;fillColor=#CCFFFF;" vertex="1" parent="46tiHvYXBvrRHCsuIv1C-156">
          <mxGeometry x="80" y="80" width="40" height="40" as="geometry" />
        </mxCell>
        <mxCell id="46tiHvYXBvrRHCsuIv1C-160" value="" style="whiteSpace=wrap;html=1;aspect=fixed;fillColor=#CCFFFF;" vertex="1" parent="46tiHvYXBvrRHCsuIv1C-156">
          <mxGeometry y="40" width="40" height="40" as="geometry" />
        </mxCell>
        <mxCell id="46tiHvYXBvrRHCsuIv1C-161" value="" style="whiteSpace=wrap;html=1;aspect=fixed;fillColor=#CCFFFF;" vertex="1" parent="46tiHvYXBvrRHCsuIv1C-156">
          <mxGeometry x="40" y="40" width="40" height="40" as="geometry" />
        </mxCell>
        <mxCell id="46tiHvYXBvrRHCsuIv1C-162" value="" style="whiteSpace=wrap;html=1;aspect=fixed;fillColor=#CCFFFF;" vertex="1" parent="46tiHvYXBvrRHCsuIv1C-156">
          <mxGeometry x="80" y="40" width="40" height="40" as="geometry" />
        </mxCell>
        <mxCell id="46tiHvYXBvrRHCsuIv1C-163" value="" style="whiteSpace=wrap;html=1;aspect=fixed;fillColor=#CCFFFF;" vertex="1" parent="46tiHvYXBvrRHCsuIv1C-156">
          <mxGeometry width="40" height="40" as="geometry" />
        </mxCell>
        <mxCell id="46tiHvYXBvrRHCsuIv1C-164" value="" style="whiteSpace=wrap;html=1;aspect=fixed;fillColor=#CCFFFF;" vertex="1" parent="46tiHvYXBvrRHCsuIv1C-156">
          <mxGeometry x="40" width="40" height="40" as="geometry" />
        </mxCell>
        <mxCell id="46tiHvYXBvrRHCsuIv1C-165" value="" style="whiteSpace=wrap;html=1;aspect=fixed;fillColor=#CCFFFF;" vertex="1" parent="46tiHvYXBvrRHCsuIv1C-156">
          <mxGeometry x="80" width="40" height="40" as="geometry" />
        </mxCell>
      </root>
    </mxGraphModel>
  </diagram>
</mxfile>
